<?xml version="1.0" standalone="no"?><!DOCTYPE svg PUBLIC "-//W3C//DTD SVG 1.1//EN" "http://www.w3.org/Graphics/SVG/1.1/DTD/svg11.dtd"><svg t="1769668205380" class="icon" viewBox="0 0 1024 1024" version="1.1" xmlns="http://www.w3.org/2000/svg" p-id="5161" width="32" height="32" xmlns:xlink="http://www.w3.org/1999/xlink"><path d="M343.2 331.1L232.5 504.9h387.1l85-180.4z" fill="#FFD800" p-id="5162"></path><path d="M618.9 519.8H230.6c-5.7 0-10.2-4.6-10.2-10.2 0-5.7 4.6-10.2 10.2-10.2h382l82.1-161.1h-356c-5.7 0-10.2-4.6-10.2-10.2s4.6-10.2 10.2-10.2h372.8c3.6 0 6.9 1.9 8.7 4.9 1.9 3 2 6.8 0.4 10L628 514.2c-1.7 3.4-5.2 5.6-9.1 5.6z" fill="#444444" p-id="5163"></path><path d="M810.7 507.5L724.1 329c-0.3-0.7-0.5-1.5-0.5-2.2v-37.7c0-14.1-11.5-25.6-25.6-25.6H355c-14.1 0-25.6 11.5-25.6 25.6V326c0 1-0.3 1.9-0.8 2.7L218.9 506.1c-2.5 4-3.8 8.7-3.8 13.5V763h572.6c14.1 0 25.6-11.5 25.6-25.6V518.7c0-3.9-0.9-7.7-2.6-11.2z m-17.9 229.9c0 2.8-2.3 5.1-5.1 5.1H629.2v-238h-20.5v238H235.5v-223c0-1 0.3-1.9 0.8-2.7L346 339.5c2.5-4 3.8-8.7 3.8-13.5v-36.9c0-2.8 2.3-5.1 5.1-5.1h343c2.8 0 5.1 2.3 5.1 5.1v37.7c0 3.8 0.9 7.7 2.6 11.2l86.6 178.5c0.3 0.7 0.5 1.4 0.5 2.2v218.7z" fill="#444444" p-id="5164"></path><path d="M314.4 645.1l-32-69.5H272v98h10.4v-74.5l27.3 59.1h9l26.8-59.1v74.5H356v-98h-10.5zM384.3 575.6h10.5v98h-10.5zM433.6 575.6h-10.4v98h60.6v-9.3h-50.2zM571.1 575.6h-12.8l-45.7 56.3v-56.3h-10.5v98h10.5v-27.4l20.6-24.8 29.9 52.2h12.4l-35.3-60.1z" fill="#444444" p-id="5165"></path></svg>